<svg t="1577708688448" class="icon" viewBox="0 0 1024 1024" version="1.1" xmlns="http://www.w3.org/2000/svg" p-id="4156" width="200" height="200"><path d="M102.4 0H914.285714c36.571429 0 65.828571 21.942857 65.828572 58.514286V958.171429c0 29.257143-29.257143 58.514286-58.514286 65.828571H102.4c-36.571429 0-65.828571-21.942857-65.828571-58.514286V65.828571C36.571429 29.257143 65.828571 7.314286 95.085714 0H914.285714 102.4z m819.2 65.828571H102.4v892.342858H914.285714V65.828571z m-636.342857 672.914286h446.171428c14.628571 0 29.257143 14.628571 29.257143 29.257143s-14.628571 29.257143-29.257143 29.257143H285.257143c-14.628571 7.314286-29.257143-7.314286-29.257143-21.942857 0-14.628571 14.628571-29.257143 29.257143-36.571429h446.171428-446.171428zM351.085714 585.142857h321.828572c14.628571 0 29.257143 14.628571 29.257143 29.257143s-14.628571 29.257143-29.257143 29.257143H351.085714c-14.628571 0-29.257143-14.628571-29.257143-29.257143S329.142857 585.142857 351.085714 585.142857h321.828572-321.828572z m160.914286-438.857143l58.514286 117.028572 124.342857 21.942857-87.771429 95.085714L621.714286 512l-109.714286-65.828571L402.285714 512l21.942857-131.657143L329.142857 285.257143l124.342857-21.942857 58.514286-117.028572z" p-id="4157" fill="#ffffff"></path></svg>