<svg t="1577711043403" class="icon" viewBox="0 0 1024 1024" version="1.1" xmlns="http://www.w3.org/2000/svg" p-id="6493" width="200" height="200"><path d="M514.833408 479.79008l-110.6432 90.524672 110.6432 331.927552 110.6432-331.927552-110.6432-90.524672z m226.31424-256.489472c0-125.730816-100.584448-221.285376-226.31424-221.285376-125.729792 0-226.31424 100.584448-226.31424 221.285376 0 120.700928 100.584448 221.284352 226.31424 221.284352 120.700928 0 226.31424-100.583424 226.31424-221.284352z m115.67104 608.53248h-155.904c-10.058752 0-15.08864-10.057728-15.08864-15.086592 0-10.058752 10.058752-15.087616 15.087616-15.087616h155.906048c10.057728 0 15.087616 10.057728 15.087616 15.087616 5.02784 5.028864-5.029888 15.087616-15.087616 15.087616z m-30.174208-377.1904h-95.555584L545.00864 1022.944256H826.64448c70.408192 0 120.699904-55.320576 120.699904-120.700928V575.34464c5.029888-70.409216-50.291712-120.700928-120.699904-120.700928z m-628.651008 0c-70.408192 0-120.700928 55.322624-120.700928 120.701952v326.897664c0 65.380352 55.3216 120.700928 120.700928 120.700928H484.6592l-191.10912-568.29952h-95.555584z" fill="#ffffff" p-id="6494"></path></svg>