<svg t="1577708726456" class="icon" viewBox="0 0 1024 1024" version="1.1" xmlns="http://www.w3.org/2000/svg" p-id="4422" width="200" height="200"><path d="M122.1 927h779.7c14.4 0 26.1-11.7 26.1-26.1 0-14.4-11.7-26.1-26.1-26.1H148.3V121.2c0-14.4-11.7-26.1-26.1-26.1-14.4 0-26.1 11.7-26.1 26.1v779.7c-0.1 14.4 11.6 26.1 26 26.1z m0 0" p-id="4423" fill="#ffffff"></path><path d="M248.2 723.5c30.6 0 55.4-28.2 55.4-62.9 0-8.4-1.5-16.4-4.1-23.7l109.3-142.8c5.2 1.9 10.8 2.9 16.6 2.9 16.1 0 30.7-7.8 40.8-20.4l103.2 58.8c0.3 34.4 25 62.2 55.4 62.2 30.6 0 55.4-28.2 55.4-62.9 0-1.2 0-2.3-0.1-3.5L824 391c6.9 3.5 14.4 5.4 22.4 5.4 30.6 0 55.4-28.2 55.4-62.9s-24.8-62.9-55.4-62.9c-30.6 0-55.4 28.2-55.4 62.9 0 7.2 1.1 14 3 20.4L659.4 485.6c-9.5-8.6-21.5-13.7-34.5-13.7-15.1 0-28.7 6.8-38.7 17.9l-105.5-60c-2-32.7-25.9-58.6-55.2-58.6-30.6 0-55.4 28.2-55.4 62.9 0 9.5 1.9 18.6 5.2 26.7L267.7 601.7c-6.1-2.6-12.6-4-19.5-4-30.6 0-55.4 28.2-55.4 62.9 0.1 34.7 24.9 62.9 55.4 62.9z m0 0" p-id="4424" fill="#ffffff"></path></svg>