<?xml version="1.0" encoding="utf-8"?>
<svg version="1.1" xmlns:xlink="http://www.w3.org/1999/xlink" width="12px" height="12px" viewBox="9 96.5  12 12" xmlns="http://www.w3.org/2000/svg">
  <path d="M 15 96.5  C 18.36 96.5  21 99.14  21 102.5  C 21 105.86  18.36 108.5  15 108.5  C 11.64 108.5  9 105.86  9 102.5  C 9 99.14  11.64 96.5  15 96.5  Z " fill-rule="nonzero" fill="#ffffff" stroke="none" />
  <path d="M 15 97  C 18.08 97  20.5 99.42  20.5 102.5  C 20.5 105.58  18.08 108  15 108  C 11.92 108  9.5 105.58  9.5 102.5  C 9.5 99.42  11.92 97  15 97  Z " stroke-width="1" stroke="#797979" fill="none" />
  <path d="M 15 105.5  C 13.32 105.5  12 104.18  12 102.5  C 12 100.82  13.32 99.5  15 99.5  C 16.68 99.5  18 100.82  18 102.5  C 18 104.18  16.68 105.5  15 105.5  " fill-rule="nonzero" fill="#797979" stroke="none" />
</svg>