<?xml version="1.0" encoding="utf-8"?>
<svg version="1.1" xmlns:xlink="http://www.w3.org/1999/xlink" width="12px" height="12px" viewBox="340 96.5  12 12" xmlns="http://www.w3.org/2000/svg">
  <path d="M 346 96.5  C 349.36 96.5  352 99.14  352 102.5  C 352 105.86  349.36 108.5  346 108.5  C 342.64 108.5  340 105.86  340 102.5  C 340 99.14  342.64 96.5  346 96.5  Z " fill-rule="nonzero" fill="#ffffff" stroke="none" />
  <path d="M 346 97  C 349.08 97  351.5 99.42  351.5 102.5  C 351.5 105.58  349.08 108  346 108  C 342.92 108  340.5 105.58  340.5 102.5  C 340.5 99.42  342.92 97  346 97  Z " stroke-width="1" stroke="#797979" fill="none" />
  <path d="M 346 105.5  C 344.32 105.5  343 104.18  343 102.5  C 343 100.82  344.32 99.5  346 99.5  C 347.68 99.5  349 100.82  349 102.5  C 349 104.18  347.68 105.5  346 105.5  " fill-rule="nonzero" fill="#797979" stroke="none" />
</svg>