<?xml version="1.0" encoding="utf-8"?>
<svg version="1.1" xmlns:xlink="http://www.w3.org/1999/xlink" width="12px" height="12px" viewBox="126 96.5  12 12" xmlns="http://www.w3.org/2000/svg">
  <path d="M 132 96.5  C 135.36 96.5  138 99.14  138 102.5  C 138 105.86  135.36 108.5  132 108.5  C 128.64 108.5  126 105.86  126 102.5  C 126 99.14  128.64 96.5  132 96.5  Z " fill-rule="nonzero" fill="#ffffff" stroke="none" />
  <path d="M 132 97  C 135.08 97  137.5 99.42  137.5 102.5  C 137.5 105.58  135.08 108  132 108  C 128.92 108  126.5 105.58  126.5 102.5  C 126.5 99.42  128.92 97  132 97  Z " stroke-width="1" stroke="#797979" fill="none" />
  <path d="M 132 105.5  C 130.32 105.5  129 104.18  129 102.5  C 129 100.82  130.32 99.5  132 99.5  C 133.68 99.5  135 100.82  135 102.5  C 135 104.18  133.68 105.5  132 105.5  " fill-rule="nonzero" fill="#797979" stroke="none" />
</svg>