<?xml version="1.0" encoding="utf-8"?>
<svg version="1.1" xmlns:xlink="http://www.w3.org/1999/xlink" width="10px" height="12px" xmlns="http://www.w3.org/2000/svg">
  <g transform="matrix(1 0 0 1 -144 -244 )">
    <path d="M 3.33333333333333 2.57142857142857  L 4.16666666666667 2.57142857142857  L 4.16666666666667 1.71428571428571  L 3.33333333333333 1.71428571428571  L 3.33333333333333 2.57142857142857  Z M 4.16666666666667 3.42857142857143  L 5 3.42857142857143  L 5 2.57142857142857  L 4.16666666666667 2.57142857142857  L 4.16666666666667 3.42857142857143  Z M 3.33333333333333 4.28571428571428  L 4.16666666666667 4.28571428571428  L 4.16666666666667 3.42857142857143  L 3.33333333333333 3.42857142857143  L 3.33333333333333 4.28571428571428  Z M 4.16666666666667 5.14285714285714  L 5 5.14285714285714  L 5 4.28571428571428  L 4.16666666666667 4.28571428571428  L 4.16666666666667 5.14285714285714  Z M 7.52604166666667 0.455357142857143  L 9.55729166666667 2.54464285714286  C 9.67881944444444 2.66964285714286  9.78298611111111 2.83928571428571  9.86979166666667 3.05357142857143  C 9.95659722222222 3.26785714285714  10 3.46428571428571  10 3.64285714285714  L 10 11.3571428571429  C 10 11.5357142857143  9.93923611111111 11.6875  9.81770833333333 11.8125  C 9.69618055555556 11.9375  9.54861111111111 12  9.375 12  L 0.625 12  C 0.451388888888889 12  0.303819444444444 11.9375  0.182291666666667 11.8125  C 0.0607638888888889 11.6875  0 11.5357142857143  0 11.3571428571429  L 0 0.642857142857143  C 0 0.464285714285714  0.0607638888888889 0.3125  0.182291666666667 0.1875  C 0.303819444444444 0.0625000000000004  0.451388888888889 0  0.625 0  L 6.45833333333333 0  C 6.63194444444445 0  6.82291666666667 0.0446428571428577  7.03125 0.133928571428572  C 7.23958333333333 0.223214285714286  7.40451388888889 0.330357142857142  7.52604166666667 0.455357142857143  Z M 6.93359375 1.05803571428571  C 6.88151041666667 1.00446428571429  6.79253472222222 0.955357142857141  6.66666666666667 0.910714285714285  L 6.66666666666667 3.42857142857143  L 9.11458333333333 3.42857142857143  C 9.07118055555556 3.29910714285714  9.0234375 3.20758928571429  8.97135416666667 3.15401785714286  L 6.93359375 1.05803571428571  Z M 1 11.1428571428571  L 9.16666666666667 11.1428571428571  L 9.16666666666667 4.28571428571428  L 6.45833333333333 4.28571428571428  C 6.28472222222222 4.28571428571428  6.13715277777778 4.22321428571428  6.015625 4.09821428571428  C 5.89409722222222 3.97321428571429  5.83333333333333 3.82142857142857  5.83333333333333 3.64285714285714  L 5.83333333333333 0.857142857142857  L 5 0.857142857142857  L 5 1.71428571428571  L 4.16666666666667 1.71428571428571  L 4.16666666666667 0.857142857142857  L 1 0.857142857142857  L 1 11.1428571428571  Z M 4.93489583333333 6.08705357142857  C 5.00868055555556 6.14508928571428  5.05859375 6.22098214285714  5.08463541666667 6.31473214285714  L 5.78125 8.65178571428571  C 5.81597222222222 8.77232142857143  5.83333333333333 8.88839285714286  5.83333333333333 9  C 5.83333333333333 9.37053571428571  5.67599826388889 9.67745535714286  5.361328125 9.92075892857143  C 5.04665798611111 10.1640625  4.6484375 10.2857142857143  4.16666666666667 10.2857142857143  C 3.68489583333333 10.2857142857143  3.28667534722222 10.1640625  2.97200520833333 9.92075892857143  C 2.65733506944444 9.67745535714286  2.5 9.37053571428571  2.5 9  C 2.5 8.88839285714286  2.51736111111111 8.77232142857143  2.55208333333333 8.65178571428571  C 2.64322916666667 8.37053571428571  2.90364583333333 7.48660714285714  3.33333333333333 6  L 3.33333333333333 5.14285714285714  L 4.16666666666667 5.14285714285714  L 4.16666666666667 6  L 4.68098958333333 6  C 4.77647569444444 6  4.86111111111111 6.02901785714286  4.93489583333333 6.08705357142857  Z M 3.57747395833333 9.30133928571429  C 3.740234375 9.38616071428572  3.93663194444444 9.42857142857143  4.16666666666667 9.42857142857143  C 4.39670138888889 9.42857142857143  4.59309895833333 9.38616071428572  4.755859375 9.30133928571429  C 4.91861979166667 9.21651785714286  5 9.11607142857143  5 9  C 5 8.88392857142857  4.91861979166667 8.78348214285714  4.755859375 8.69866071428571  C 4.59309895833333 8.61383928571428  4.39670138888889 8.57142857142857  4.16666666666667 8.57142857142857  C 3.93663194444444 8.57142857142857  3.740234375 8.61383928571428  3.57747395833333 8.69866071428571  C 3.41471354166667 8.78348214285714  3.33333333333333 8.88392857142857  3.33333333333333 9  C 3.33333333333333 9.11607142857143  3.41471354166667 9.21651785714286  3.57747395833333 9.30133928571429  Z " fill-rule="nonzero" fill="#02a7f0" stroke="none" transform="matrix(1 0 0 1 144 244 )" />
  </g>
</svg>