<?xml version="1.0" encoding="utf-8"?>
<svg version="1.1" xmlns:xlink="http://www.w3.org/1999/xlink" width="140px" height="40px" xmlns="http://www.w3.org/2000/svg">
  <g transform="matrix(1 0 0 1 -27 -62 )">
    <path d="M 27.5 67  A 4.5 4.5 0 0 1 32 62.5 L 162 62.5  A 4.5 4.5 0 0 1 166.5 67 L 166.5 97  A 4.5 4.5 0 0 1 162 101.5 L 32 101.5  A 4.5 4.5 0 0 1 27.5 97 L 27.5 67  Z " fill-rule="nonzero" fill="#ffffff" stroke="none" />
    <path d="M 27.5 67  A 4.5 4.5 0 0 1 32 62.5 L 162 62.5  A 4.5 4.5 0 0 1 166.5 67 L 166.5 97  A 4.5 4.5 0 0 1 162 101.5 L 32 101.5  A 4.5 4.5 0 0 1 27.5 97 L 27.5 67  Z " stroke-width="1" stroke="#797979" fill="none" />
  </g>
</svg>