<?xml version="1.0" encoding="utf-8"?>
<svg version="1.1" xmlns:xlink="http://www.w3.org/1999/xlink" width="12px" height="12px" viewBox="326 487  12 12" xmlns="http://www.w3.org/2000/svg">
  <path d="M 332 487  C 335.36 487  338 489.64  338 493  C 338 496.36  335.36 499  332 499  C 328.64 499  326 496.36  326 493  C 326 489.64  328.64 487  332 487  Z " fill-rule="nonzero" fill="#ffffff" stroke="none" />
  <path d="M 332 487.5  C 335.08 487.5  337.5 489.92  337.5 493  C 337.5 496.08  335.08 498.5  332 498.5  C 328.92 498.5  326.5 496.08  326.5 493  C 326.5 489.92  328.92 487.5  332 487.5  Z " stroke-width="1" stroke="#797979" fill="none" />
  <path d="M 332 496  C 330.32 496  329 494.68  329 493  C 329 491.32  330.32 490  332 490  C 333.68 490  335 491.32  335 493  C 335 494.68  333.68 496  332 496  " fill-rule="nonzero" fill="#797979" stroke="none" />
</svg>