<?xml version="1.0" encoding="utf-8"?>
<svg version="1.1" xmlns:xlink="http://www.w3.org/1999/xlink" width="12px" height="12px" viewBox="626 487  12 12" xmlns="http://www.w3.org/2000/svg">
  <path d="M 632 487  C 635.36 487  638 489.64  638 493  C 638 496.36  635.36 499  632 499  C 628.64 499  626 496.36  626 493  C 626 489.64  628.64 487  632 487  Z " fill-rule="nonzero" fill="#ffffff" stroke="none" />
  <path d="M 632 487.5  C 635.08 487.5  637.5 489.92  637.5 493  C 637.5 496.08  635.08 498.5  632 498.5  C 628.92 498.5  626.5 496.08  626.5 493  C 626.5 489.92  628.92 487.5  632 487.5  Z " stroke-width="1" stroke="#797979" fill="none" />
  <path d="M 632 496  C 630.32 496  629 494.68  629 493  C 629 491.32  630.32 490  632 490  C 633.68 490  635 491.32  635 493  C 635 494.68  633.68 496  632 496  " fill-rule="nonzero" fill="#797979" stroke="none" />
</svg>