<?xml version="1.0" encoding="utf-8"?>
<svg version="1.1" xmlns:xlink="http://www.w3.org/1999/xlink" width="12px" height="12px" viewBox="26 487  12 12" xmlns="http://www.w3.org/2000/svg">
  <path d="M 32 487  C 35.36 487  38 489.64  38 493  C 38 496.36  35.36 499  32 499  C 28.64 499  26 496.36  26 493  C 26 489.64  28.64 487  32 487  Z " fill-rule="nonzero" fill="#ffffff" stroke="none" />
  <path d="M 32 487.5  C 35.08 487.5  37.5 489.92  37.5 493  C 37.5 496.08  35.08 498.5  32 498.5  C 28.92 498.5  26.5 496.08  26.5 493  C 26.5 489.92  28.92 487.5  32 487.5  Z " stroke-width="1" stroke="#797979" fill="none" />
  <path d="M 32 496  C 30.32 496  29 494.68  29 493  C 29 491.32  30.32 490  32 490  C 33.68 490  35 491.32  35 493  C 35 494.68  33.68 496  32 496  " fill-rule="nonzero" fill="#797979" stroke="none" />
</svg>