<?xml version="1.0" encoding="utf-8"?>
<svg version="1.1" xmlns:xlink="http://www.w3.org/1999/xlink" width="12px" height="12px" viewBox="826 487  12 12" xmlns="http://www.w3.org/2000/svg">
  <path d="M 832 487  C 835.36 487  838 489.64  838 493  C 838 496.36  835.36 499  832 499  C 828.64 499  826 496.36  826 493  C 826 489.64  828.64 487  832 487  Z " fill-rule="nonzero" fill="#ffffff" stroke="none" />
  <path d="M 832 487.5  C 835.08 487.5  837.5 489.92  837.5 493  C 837.5 496.08  835.08 498.5  832 498.5  C 828.92 498.5  826.5 496.08  826.5 493  C 826.5 489.92  828.92 487.5  832 487.5  Z " stroke-width="1" stroke="#797979" fill="none" />
  <path d="M 832 496  C 830.32 496  829 494.68  829 493  C 829 491.32  830.32 490  832 490  C 833.68 490  835 491.32  835 493  C 835 494.68  833.68 496  832 496  " fill-rule="nonzero" fill="#797979" stroke="none" />
</svg>