<?xml version="1.0" encoding="utf-8"?>
<svg version="1.1" xmlns:xlink="http://www.w3.org/1999/xlink" width="12px" height="12px" viewBox="26 551  12 12" xmlns="http://www.w3.org/2000/svg">
  <path d="M 32 551  C 35.36 551  38 553.64  38 557  C 38 560.36  35.36 563  32 563  C 28.64 563  26 560.36  26 557  C 26 553.64  28.64 551  32 551  Z " fill-rule="nonzero" fill="#ffffff" stroke="none" />
  <path d="M 32 551.5  C 35.08 551.5  37.5 553.92  37.5 557  C 37.5 560.08  35.08 562.5  32 562.5  C 28.92 562.5  26.5 560.08  26.5 557  C 26.5 553.92  28.92 551.5  32 551.5  Z " stroke-width="1" stroke="#797979" fill="none" />
  <path d="M 32 560  C 30.32 560  29 558.68  29 557  C 29 555.32  30.32 554  32 554  C 33.68 554  35 555.32  35 557  C 35 558.68  33.68 560  32 560  " fill-rule="nonzero" fill="#797979" stroke="none" />
</svg>