<?xml version="1.0" encoding="utf-8"?>
<svg version="1.1" xmlns:xlink="http://www.w3.org/1999/xlink" width="12px" height="12px" viewBox="126 551  12 12" xmlns="http://www.w3.org/2000/svg">
  <path d="M 132 551  C 135.36 551  138 553.64  138 557  C 138 560.36  135.36 563  132 563  C 128.64 563  126 560.36  126 557  C 126 553.64  128.64 551  132 551  Z " fill-rule="nonzero" fill="#ffffff" stroke="none" />
  <path d="M 132 551.5  C 135.08 551.5  137.5 553.92  137.5 557  C 137.5 560.08  135.08 562.5  132 562.5  C 128.92 562.5  126.5 560.08  126.5 557  C 126.5 553.92  128.92 551.5  132 551.5  Z " stroke-width="1" stroke="#797979" fill="none" />
  <path d="M 132 560  C 130.32 560  129 558.68  129 557  C 129 555.32  130.32 554  132 554  C 133.68 554  135 555.32  135 557  C 135 558.68  133.68 560  132 560  " fill-rule="nonzero" fill="#797979" stroke="none" />
</svg>