<?xml version="1.0" encoding="utf-8"?>
<svg version="1.1" xmlns:xlink="http://www.w3.org/1999/xlink" width="12px" height="12px" viewBox="126 630  12 12" xmlns="http://www.w3.org/2000/svg">
  <path d="M 132 630  C 135.36 630  138 632.64  138 636  C 138 639.36  135.36 642  132 642  C 128.64 642  126 639.36  126 636  C 126 632.64  128.64 630  132 630  Z " fill-rule="nonzero" fill="#ffffff" stroke="none" />
  <path d="M 132 630.5  C 135.08 630.5  137.5 632.92  137.5 636  C 137.5 639.08  135.08 641.5  132 641.5  C 128.92 641.5  126.5 639.08  126.5 636  C 126.5 632.92  128.92 630.5  132 630.5  Z " stroke-width="1" stroke="#797979" fill="none" />
  <path d="M 132 639  C 130.32 639  129 637.68  129 636  C 129 634.32  130.32 633  132 633  C 133.68 633  135 634.32  135 636  C 135 637.68  133.68 639  132 639  " fill-rule="nonzero" fill="#797979" stroke="none" />
</svg>