<?xml version="1.0" encoding="utf-8"?>
<svg version="1.1" xmlns:xlink="http://www.w3.org/1999/xlink" width="12px" height="12px" viewBox="394 551  12 12" xmlns="http://www.w3.org/2000/svg">
  <path d="M 400 551  C 403.36 551  406 553.64  406 557  C 406 560.36  403.36 563  400 563  C 396.64 563  394 560.36  394 557  C 394 553.64  396.64 551  400 551  Z " fill-rule="nonzero" fill="#ffffff" stroke="none" />
  <path d="M 400 551.5  C 403.08 551.5  405.5 553.92  405.5 557  C 405.5 560.08  403.08 562.5  400 562.5  C 396.92 562.5  394.5 560.08  394.5 557  C 394.5 553.92  396.92 551.5  400 551.5  Z " stroke-width="1" stroke="#797979" fill="none" />
  <path d="M 400 560  C 398.32 560  397 558.68  397 557  C 397 555.32  398.32 554  400 554  C 401.68 554  403 555.32  403 557  C 403 558.68  401.68 560  400 560  " fill-rule="nonzero" fill="#797979" stroke="none" />
</svg>