<?xml version="1.0" encoding="utf-8"?>
<svg version="1.1" xmlns:xlink="http://www.w3.org/1999/xlink" width="12px" height="12px" viewBox="26 694  12 12" xmlns="http://www.w3.org/2000/svg">
  <path d="M 32 694  C 35.36 694  38 696.64  38 700  C 38 703.36  35.36 706  32 706  C 28.64 706  26 703.36  26 700  C 26 696.64  28.64 694  32 694  Z " fill-rule="nonzero" fill="#ffffff" stroke="none" />
  <path d="M 32 694.5  C 35.08 694.5  37.5 696.92  37.5 700  C 37.5 703.08  35.08 705.5  32 705.5  C 28.92 705.5  26.5 703.08  26.5 700  C 26.5 696.92  28.92 694.5  32 694.5  Z " stroke-width="1" stroke="#797979" fill="none" />
  <path d="M 32 703  C 30.32 703  29 701.68  29 700  C 29 698.32  30.32 697  32 697  C 33.68 697  35 698.32  35 700  C 35 701.68  33.68 703  32 703  " fill-rule="nonzero" fill="#797979" stroke="none" />
</svg>