<?xml version="1.0" encoding="utf-8"?>
<svg version="1.1" xmlns:xlink="http://www.w3.org/1999/xlink" width="12px" height="12px" viewBox="126 758  12 12" xmlns="http://www.w3.org/2000/svg">
  <path d="M 132 758  C 135.36 758  138 760.64  138 764  C 138 767.36  135.36 770  132 770  C 128.64 770  126 767.36  126 764  C 126 760.64  128.64 758  132 758  Z " fill-rule="nonzero" fill="#ffffff" stroke="none" />
  <path d="M 132 758.5  C 135.08 758.5  137.5 760.92  137.5 764  C 137.5 767.08  135.08 769.5  132 769.5  C 128.92 769.5  126.5 767.08  126.5 764  C 126.5 760.92  128.92 758.5  132 758.5  Z " stroke-width="1" stroke="#797979" fill="none" />
  <path d="M 132 767  C 130.32 767  129 765.68  129 764  C 129 762.32  130.32 761  132 761  C 133.68 761  135 762.32  135 764  C 135 765.68  133.68 767  132 767  " fill-rule="nonzero" fill="#797979" stroke="none" />
</svg>