<?xml version="1.0" encoding="utf-8"?>
<svg version="1.1" xmlns:xlink="http://www.w3.org/1999/xlink" width="12px" height="12px" viewBox="26 758  12 12" xmlns="http://www.w3.org/2000/svg">
  <path d="M 32 758  C 35.36 758  38 760.64  38 764  C 38 767.36  35.36 770  32 770  C 28.64 770  26 767.36  26 764  C 26 760.64  28.64 758  32 758  Z " fill-rule="nonzero" fill="#ffffff" stroke="none" />
  <path d="M 32 758.5  C 35.08 758.5  37.5 760.92  37.5 764  C 37.5 767.08  35.08 769.5  32 769.5  C 28.92 769.5  26.5 767.08  26.5 764  C 26.5 760.92  28.92 758.5  32 758.5  Z " stroke-width="1" stroke="#797979" fill="none" />
  <path d="M 32 767  C 30.32 767  29 765.68  29 764  C 29 762.32  30.32 761  32 761  C 33.68 761  35 762.32  35 764  C 35 765.68  33.68 767  32 767  " fill-rule="nonzero" fill="#797979" stroke="none" />
</svg>