<?xml version="1.0" encoding="utf-8"?>
<svg version="1.1" xmlns:xlink="http://www.w3.org/1999/xlink" width="12px" height="12px" viewBox="126 821  12 12" xmlns="http://www.w3.org/2000/svg">
  <path d="M 132 821  C 135.36 821  138 823.64  138 827  C 138 830.36  135.36 833  132 833  C 128.64 833  126 830.36  126 827  C 126 823.64  128.64 821  132 821  Z " fill-rule="nonzero" fill="#ffffff" stroke="none" />
  <path d="M 132 821.5  C 135.08 821.5  137.5 823.92  137.5 827  C 137.5 830.08  135.08 832.5  132 832.5  C 128.92 832.5  126.5 830.08  126.5 827  C 126.5 823.92  128.92 821.5  132 821.5  Z " stroke-width="1" stroke="#797979" fill="none" />
  <path d="M 132 830  C 130.32 830  129 828.68  129 827  C 129 825.32  130.32 824  132 824  C 133.68 824  135 825.32  135 827  C 135 828.68  133.68 830  132 830  " fill-rule="nonzero" fill="#797979" stroke="none" />
</svg>