<?xml version="1.0" encoding="utf-8"?>
<svg version="1.1" xmlns:xlink="http://www.w3.org/1999/xlink" width="12px" height="12px" viewBox="226 758  12 12" xmlns="http://www.w3.org/2000/svg">
  <path d="M 232 758  C 235.36 758  238 760.64  238 764  C 238 767.36  235.36 770  232 770  C 228.64 770  226 767.36  226 764  C 226 760.64  228.64 758  232 758  Z " fill-rule="nonzero" fill="#ffffff" stroke="none" />
  <path d="M 232 758.5  C 235.08 758.5  237.5 760.92  237.5 764  C 237.5 767.08  235.08 769.5  232 769.5  C 228.92 769.5  226.5 767.08  226.5 764  C 226.5 760.92  228.92 758.5  232 758.5  Z " stroke-width="1" stroke="#797979" fill="none" />
  <path d="M 232 767  C 230.32 767  229 765.68  229 764  C 229 762.32  230.32 761  232 761  C 233.68 761  235 762.32  235 764  C 235 765.68  233.68 767  232 767  " fill-rule="nonzero" fill="#797979" stroke="none" />
</svg>