<?xml version="1.0" encoding="utf-8"?>
<svg version="1.1" xmlns:xlink="http://www.w3.org/1999/xlink" width="12px" height="12px" viewBox="26 821  12 12" xmlns="http://www.w3.org/2000/svg">
  <path d="M 32 821  C 35.36 821  38 823.64  38 827  C 38 830.36  35.36 833  32 833  C 28.64 833  26 830.36  26 827  C 26 823.64  28.64 821  32 821  Z " fill-rule="nonzero" fill="#ffffff" stroke="none" />
  <path d="M 32 821.5  C 35.08 821.5  37.5 823.92  37.5 827  C 37.5 830.08  35.08 832.5  32 832.5  C 28.92 832.5  26.5 830.08  26.5 827  C 26.5 823.92  28.92 821.5  32 821.5  Z " stroke-width="1" stroke="#797979" fill="none" />
  <path d="M 32 830  C 30.32 830  29 828.68  29 827  C 29 825.32  30.32 824  32 824  C 33.68 824  35 825.32  35 827  C 35 828.68  33.68 830  32 830  " fill-rule="nonzero" fill="#797979" stroke="none" />
</svg>