<?xml version="1.0" encoding="utf-8"?>
<svg version="1.1" xmlns:xlink="http://www.w3.org/1999/xlink" width="12px" height="12px" viewBox="676 931  12 12" xmlns="http://www.w3.org/2000/svg">
  <path d="M 682 931  C 685.36 931  688 933.64  688 937  C 688 940.36  685.36 943  682 943  C 678.64 943  676 940.36  676 937  C 676 933.64  678.64 931  682 931  Z " fill-rule="nonzero" fill="#ffffff" stroke="none" />
  <path d="M 682 931.5  C 685.08 931.5  687.5 933.92  687.5 937  C 687.5 940.08  685.08 942.5  682 942.5  C 678.92 942.5  676.5 940.08  676.5 937  C 676.5 933.92  678.92 931.5  682 931.5  Z " stroke-width="1" stroke="#797979" fill="none" />
  <path d="M 682 940  C 680.32 940  679 938.68  679 937  C 679 935.32  680.32 934  682 934  C 683.68 934  685 935.32  685 937  C 685 938.68  683.68 940  682 940  " fill-rule="nonzero" fill="#797979" stroke="none" />
</svg>