<?xml version="1.0" encoding="utf-8"?>
<svg version="1.1" xmlns:xlink="http://www.w3.org/1999/xlink" width="12px" height="12px" viewBox="476 968  12 12" xmlns="http://www.w3.org/2000/svg">
  <path d="M 482 968  C 485.36 968  488 970.64  488 974  C 488 977.36  485.36 980  482 980  C 478.64 980  476 977.36  476 974  C 476 970.64  478.64 968  482 968  Z " fill-rule="nonzero" fill="#ffffff" stroke="none" />
  <path d="M 482 968.5  C 485.08 968.5  487.5 970.92  487.5 974  C 487.5 977.08  485.08 979.5  482 979.5  C 478.92 979.5  476.5 977.08  476.5 974  C 476.5 970.92  478.92 968.5  482 968.5  Z " stroke-width="1" stroke="#797979" fill="none" />
  <path d="M 482 977  C 480.32 977  479 975.68  479 974  C 479 972.32  480.32 971  482 971  C 483.68 971  485 972.32  485 974  C 485 975.68  483.68 977  482 977  " fill-rule="nonzero" fill="#797979" stroke="none" />
</svg>