<?xml version="1.0" encoding="utf-8"?>
<svg version="1.1" xmlns:xlink="http://www.w3.org/1999/xlink" width="12px" height="12px" viewBox="376 931  12 12" xmlns="http://www.w3.org/2000/svg">
  <path d="M 382 931  C 385.36 931  388 933.64  388 937  C 388 940.36  385.36 943  382 943  C 378.64 943  376 940.36  376 937  C 376 933.64  378.64 931  382 931  Z " fill-rule="nonzero" fill="#ffffff" stroke="none" />
  <path d="M 382 931.5  C 385.08 931.5  387.5 933.92  387.5 937  C 387.5 940.08  385.08 942.5  382 942.5  C 378.92 942.5  376.5 940.08  376.5 937  C 376.5 933.92  378.92 931.5  382 931.5  Z " stroke-width="1" stroke="#797979" fill="none" />
  <path d="M 382 940  C 380.32 940  379 938.68  379 937  C 379 935.32  380.32 934  382 934  C 383.68 934  385 935.32  385 937  C 385 938.68  383.68 940  382 940  " fill-rule="nonzero" fill="#797979" stroke="none" />
</svg>