<?xml version="1.0" encoding="utf-8"?>
<svg version="1.1" xmlns:xlink="http://www.w3.org/1999/xlink" width="12px" height="12px" viewBox="676 1005  12 12" xmlns="http://www.w3.org/2000/svg">
  <path d="M 682 1005  C 685.36 1005  688 1007.64  688 1011  C 688 1014.36  685.36 1017  682 1017  C 678.64 1017  676 1014.36  676 1011  C 676 1007.64  678.64 1005  682 1005  Z " fill-rule="nonzero" fill="#ffffff" stroke="none" />
  <path d="M 682 1005.5  C 685.08 1005.5  687.5 1007.92  687.5 1011  C 687.5 1014.08  685.08 1016.5  682 1016.5  C 678.92 1016.5  676.5 1014.08  676.5 1011  C 676.5 1007.92  678.92 1005.5  682 1005.5  Z " stroke-width="1" stroke="#797979" fill="none" />
  <path d="M 682 1014  C 680.32 1014  679 1012.68  679 1011  C 679 1009.32  680.32 1008  682 1008  C 683.68 1008  685 1009.32  685 1011  C 685 1012.68  683.68 1014  682 1014  " fill-rule="nonzero" fill="#797979" stroke="none" />
</svg>