<?xml version="1.0" encoding="utf-8"?>
<svg version="1.1" xmlns:xlink="http://www.w3.org/1999/xlink" width="12px" height="12px" viewBox="426 968  12 12" xmlns="http://www.w3.org/2000/svg">
  <path d="M 432 968  C 435.36 968  438 970.64  438 974  C 438 977.36  435.36 980  432 980  C 428.64 980  426 977.36  426 974  C 426 970.64  428.64 968  432 968  Z " fill-rule="nonzero" fill="#ffffff" stroke="none" />
  <path d="M 432 968.5  C 435.08 968.5  437.5 970.92  437.5 974  C 437.5 977.08  435.08 979.5  432 979.5  C 428.92 979.5  426.5 977.08  426.5 974  C 426.5 970.92  428.92 968.5  432 968.5  Z " stroke-width="1" stroke="#797979" fill="none" />
  <path d="M 432 977  C 430.32 977  429 975.68  429 974  C 429 972.32  430.32 971  432 971  C 433.68 971  435 972.32  435 974  C 435 975.68  433.68 977  432 977  " fill-rule="nonzero" fill="#797979" stroke="none" />
</svg>