<?xml version="1.0" encoding="utf-8"?>
<svg version="1.1" xmlns:xlink="http://www.w3.org/1999/xlink" width="12px" height="12px" viewBox="476 1005  12 12" xmlns="http://www.w3.org/2000/svg">
  <path d="M 482 1005  C 485.36 1005  488 1007.64  488 1011  C 488 1014.36  485.36 1017  482 1017  C 478.64 1017  476 1014.36  476 1011  C 476 1007.64  478.64 1005  482 1005  Z " fill-rule="nonzero" fill="#ffffff" stroke="none" />
  <path d="M 482 1005.5  C 485.08 1005.5  487.5 1007.92  487.5 1011  C 487.5 1014.08  485.08 1016.5  482 1016.5  C 478.92 1016.5  476.5 1014.08  476.5 1011  C 476.5 1007.92  478.92 1005.5  482 1005.5  Z " stroke-width="1" stroke="#797979" fill="none" />
  <path d="M 482 1014  C 480.32 1014  479 1012.68  479 1011  C 479 1009.32  480.32 1008  482 1008  C 483.68 1008  485 1009.32  485 1011  C 485 1012.68  483.68 1014  482 1014  " fill-rule="nonzero" fill="#797979" stroke="none" />
</svg>