<?xml version="1.0" encoding="utf-8"?>
<svg version="1.1" xmlns:xlink="http://www.w3.org/1999/xlink" width="12px" height="12px" viewBox="577 968  12 12" xmlns="http://www.w3.org/2000/svg">
  <path d="M 583 968  C 586.36 968  589 970.64  589 974  C 589 977.36  586.36 980  583 980  C 579.64 980  577 977.36  577 974  C 577 970.64  579.64 968  583 968  Z " fill-rule="nonzero" fill="#ffffff" stroke="none" />
  <path d="M 583 968.5  C 586.08 968.5  588.5 970.92  588.5 974  C 588.5 977.08  586.08 979.5  583 979.5  C 579.92 979.5  577.5 977.08  577.5 974  C 577.5 970.92  579.92 968.5  583 968.5  Z " stroke-width="1" stroke="#797979" fill="none" />
  <path d="M 583 977  C 581.32 977  580 975.68  580 974  C 580 972.32  581.32 971  583 971  C 584.68 971  586 972.32  586 974  C 586 975.68  584.68 977  583 977  " fill-rule="nonzero" fill="#797979" stroke="none" />
</svg>