<?xml version="1.0" encoding="utf-8"?>
<svg version="1.1" xmlns:xlink="http://www.w3.org/1999/xlink" width="12px" height="12px" viewBox="626 1005  12 12" xmlns="http://www.w3.org/2000/svg">
  <path d="M 632 1005  C 635.36 1005  638 1007.64  638 1011  C 638 1014.36  635.36 1017  632 1017  C 628.64 1017  626 1014.36  626 1011  C 626 1007.64  628.64 1005  632 1005  Z " fill-rule="nonzero" fill="#ffffff" stroke="none" />
  <path d="M 632 1005.5  C 635.08 1005.5  637.5 1007.92  637.5 1011  C 637.5 1014.08  635.08 1016.5  632 1016.5  C 628.92 1016.5  626.5 1014.08  626.5 1011  C 626.5 1007.92  628.92 1005.5  632 1005.5  Z " stroke-width="1" stroke="#797979" fill="none" />
  <path d="M 632 1014  C 630.32 1014  629 1012.68  629 1011  C 629 1009.32  630.32 1008  632 1008  C 633.68 1008  635 1009.32  635 1011  C 635 1012.68  633.68 1014  632 1014  " fill-rule="nonzero" fill="#797979" stroke="none" />
</svg>