<?xml version="1.0" encoding="utf-8"?>
<svg version="1.1" xmlns:xlink="http://www.w3.org/1999/xlink" width="12px" height="12px" viewBox="577 1005  12 12" xmlns="http://www.w3.org/2000/svg">
  <path d="M 583 1005  C 586.36 1005  589 1007.64  589 1011  C 589 1014.36  586.36 1017  583 1017  C 579.64 1017  577 1014.36  577 1011  C 577 1007.64  579.64 1005  583 1005  Z " fill-rule="nonzero" fill="#ffffff" stroke="none" />
  <path d="M 583 1005.5  C 586.08 1005.5  588.5 1007.92  588.5 1011  C 588.5 1014.08  586.08 1016.5  583 1016.5  C 579.92 1016.5  577.5 1014.08  577.5 1011  C 577.5 1007.92  579.92 1005.5  583 1005.5  Z " stroke-width="1" stroke="#797979" fill="none" />
  <path d="M 583 1014  C 581.32 1014  580 1012.68  580 1011  C 580 1009.32  581.32 1008  583 1008  C 584.68 1008  586 1009.32  586 1011  C 586 1012.68  584.68 1014  583 1014  " fill-rule="nonzero" fill="#797979" stroke="none" />
</svg>