<?xml version="1.0" encoding="utf-8"?>
<svg version="1.1" xmlns:xlink="http://www.w3.org/1999/xlink" width="12px" height="12px" viewBox="376 1005  12 12" xmlns="http://www.w3.org/2000/svg">
  <path d="M 382 1005  C 385.36 1005  388 1007.64  388 1011  C 388 1014.36  385.36 1017  382 1017  C 378.64 1017  376 1014.36  376 1011  C 376 1007.64  378.64 1005  382 1005  Z " fill-rule="nonzero" fill="#ffffff" stroke="none" />
  <path d="M 382 1005.5  C 385.08 1005.5  387.5 1007.92  387.5 1011  C 387.5 1014.08  385.08 1016.5  382 1016.5  C 378.92 1016.5  376.5 1014.08  376.5 1011  C 376.5 1007.92  378.92 1005.5  382 1005.5  Z " stroke-width="1" stroke="#797979" fill="none" />
  <path d="M 382 1014  C 380.32 1014  379 1012.68  379 1011  C 379 1009.32  380.32 1008  382 1008  C 383.68 1008  385 1009.32  385 1011  C 385 1012.68  383.68 1014  382 1014  " fill-rule="nonzero" fill="#797979" stroke="none" />
</svg>