<?xml version="1.0" encoding="utf-8"?>
<svg version="1.1" xmlns:xlink="http://www.w3.org/1999/xlink" width="12px" height="12px" viewBox="676 1079  12 12" xmlns="http://www.w3.org/2000/svg">
  <path d="M 682 1079  C 685.36 1079  688 1081.64  688 1085  C 688 1088.36  685.36 1091  682 1091  C 678.64 1091  676 1088.36  676 1085  C 676 1081.64  678.64 1079  682 1079  Z " fill-rule="nonzero" fill="#ffffff" stroke="none" />
  <path d="M 682 1079.5  C 685.08 1079.5  687.5 1081.92  687.5 1085  C 687.5 1088.08  685.08 1090.5  682 1090.5  C 678.92 1090.5  676.5 1088.08  676.5 1085  C 676.5 1081.92  678.92 1079.5  682 1079.5  Z " stroke-width="1" stroke="#797979" fill="none" />
  <path d="M 682 1088  C 680.32 1088  679 1086.68  679 1085  C 679 1083.32  680.32 1082  682 1082  C 683.68 1082  685 1083.32  685 1085  C 685 1086.68  683.68 1088  682 1088  " fill-rule="nonzero" fill="#797979" stroke="none" />
</svg>