<?xml version="1.0" encoding="utf-8"?>
<svg version="1.1" xmlns:xlink="http://www.w3.org/1999/xlink" width="12px" height="12px" viewBox="376 1042  12 12" xmlns="http://www.w3.org/2000/svg">
  <path d="M 382 1042  C 385.36 1042  388 1044.64  388 1048  C 388 1051.36  385.36 1054  382 1054  C 378.64 1054  376 1051.36  376 1048  C 376 1044.64  378.64 1042  382 1042  Z " fill-rule="nonzero" fill="#ffffff" stroke="none" />
  <path d="M 382 1042.5  C 385.08 1042.5  387.5 1044.92  387.5 1048  C 387.5 1051.08  385.08 1053.5  382 1053.5  C 378.92 1053.5  376.5 1051.08  376.5 1048  C 376.5 1044.92  378.92 1042.5  382 1042.5  Z " stroke-width="1" stroke="#797979" fill="none" />
  <path d="M 382 1051  C 380.32 1051  379 1049.68  379 1048  C 379 1046.32  380.32 1045  382 1045  C 383.68 1045  385 1046.32  385 1048  C 385 1049.68  383.68 1051  382 1051  " fill-rule="nonzero" fill="#797979" stroke="none" />
</svg>