<?xml version="1.0" encoding="utf-8"?>
<svg version="1.1" xmlns:xlink="http://www.w3.org/1999/xlink" width="12px" height="12px" viewBox="476 1042  12 12" xmlns="http://www.w3.org/2000/svg">
  <path d="M 482 1042  C 485.36 1042  488 1044.64  488 1048  C 488 1051.36  485.36 1054  482 1054  C 478.64 1054  476 1051.36  476 1048  C 476 1044.64  478.64 1042  482 1042  Z " fill-rule="nonzero" fill="#ffffff" stroke="none" />
  <path d="M 482 1042.5  C 485.08 1042.5  487.5 1044.92  487.5 1048  C 487.5 1051.08  485.08 1053.5  482 1053.5  C 478.92 1053.5  476.5 1051.08  476.5 1048  C 476.5 1044.92  478.92 1042.5  482 1042.5  Z " stroke-width="1" stroke="#797979" fill="none" />
  <path d="M 482 1051  C 480.32 1051  479 1049.68  479 1048  C 479 1046.32  480.32 1045  482 1045  C 483.68 1045  485 1046.32  485 1048  C 485 1049.68  483.68 1051  482 1051  " fill-rule="nonzero" fill="#797979" stroke="none" />
</svg>