<?xml version="1.0" encoding="utf-8"?>
<svg version="1.1" xmlns:xlink="http://www.w3.org/1999/xlink" width="12px" height="12px" viewBox="577 1042  12 12" xmlns="http://www.w3.org/2000/svg">
  <path d="M 583 1042  C 586.36 1042  589 1044.64  589 1048  C 589 1051.36  586.36 1054  583 1054  C 579.64 1054  577 1051.36  577 1048  C 577 1044.64  579.64 1042  583 1042  Z " fill-rule="nonzero" fill="#ffffff" stroke="none" />
  <path d="M 583 1042.5  C 586.08 1042.5  588.5 1044.92  588.5 1048  C 588.5 1051.08  586.08 1053.5  583 1053.5  C 579.92 1053.5  577.5 1051.08  577.5 1048  C 577.5 1044.92  579.92 1042.5  583 1042.5  Z " stroke-width="1" stroke="#797979" fill="none" />
  <path d="M 583 1051  C 581.32 1051  580 1049.68  580 1048  C 580 1046.32  581.32 1045  583 1045  C 584.68 1045  586 1046.32  586 1048  C 586 1049.68  584.68 1051  583 1051  " fill-rule="nonzero" fill="#797979" stroke="none" />
</svg>