<?xml version="1.0" encoding="utf-8"?>
<svg version="1.1" xmlns:xlink="http://www.w3.org/1999/xlink" width="12px" height="12px" viewBox="426 1042  12 12" xmlns="http://www.w3.org/2000/svg">
  <path d="M 432 1042  C 435.36 1042  438 1044.64  438 1048  C 438 1051.36  435.36 1054  432 1054  C 428.64 1054  426 1051.36  426 1048  C 426 1044.64  428.64 1042  432 1042  Z " fill-rule="nonzero" fill="#ffffff" stroke="none" />
  <path d="M 432 1042.5  C 435.08 1042.5  437.5 1044.92  437.5 1048  C 437.5 1051.08  435.08 1053.5  432 1053.5  C 428.92 1053.5  426.5 1051.08  426.5 1048  C 426.5 1044.92  428.92 1042.5  432 1042.5  Z " stroke-width="1" stroke="#797979" fill="none" />
  <path d="M 432 1051  C 430.32 1051  429 1049.68  429 1048  C 429 1046.32  430.32 1045  432 1045  C 433.68 1045  435 1046.32  435 1048  C 435 1049.68  433.68 1051  432 1051  " fill-rule="nonzero" fill="#797979" stroke="none" />
</svg>