<?xml version="1.0" encoding="utf-8"?>
<svg version="1.1" xmlns:xlink="http://www.w3.org/1999/xlink" width="12px" height="12px" viewBox="376 1079  12 12" xmlns="http://www.w3.org/2000/svg">
  <path d="M 382 1079  C 385.36 1079  388 1081.64  388 1085  C 388 1088.36  385.36 1091  382 1091  C 378.64 1091  376 1088.36  376 1085  C 376 1081.64  378.64 1079  382 1079  Z " fill-rule="nonzero" fill="#ffffff" stroke="none" />
  <path d="M 382 1079.5  C 385.08 1079.5  387.5 1081.92  387.5 1085  C 387.5 1088.08  385.08 1090.5  382 1090.5  C 378.92 1090.5  376.5 1088.08  376.5 1085  C 376.5 1081.92  378.92 1079.5  382 1079.5  Z " stroke-width="1" stroke="#797979" fill="none" />
  <path d="M 382 1088  C 380.32 1088  379 1086.68  379 1085  C 379 1083.32  380.32 1082  382 1082  C 383.68 1082  385 1083.32  385 1085  C 385 1086.68  383.68 1088  382 1088  " fill-rule="nonzero" fill="#797979" stroke="none" />
</svg>