<?xml version="1.0" encoding="utf-8"?>
<svg version="1.1" xmlns:xlink="http://www.w3.org/1999/xlink" width="12px" height="12px" viewBox="626 1042  12 12" xmlns="http://www.w3.org/2000/svg">
  <path d="M 632 1042  C 635.36 1042  638 1044.64  638 1048  C 638 1051.36  635.36 1054  632 1054  C 628.64 1054  626 1051.36  626 1048  C 626 1044.64  628.64 1042  632 1042  Z " fill-rule="nonzero" fill="#ffffff" stroke="none" />
  <path d="M 632 1042.5  C 635.08 1042.5  637.5 1044.92  637.5 1048  C 637.5 1051.08  635.08 1053.5  632 1053.5  C 628.92 1053.5  626.5 1051.08  626.5 1048  C 626.5 1044.92  628.92 1042.5  632 1042.5  Z " stroke-width="1" stroke="#797979" fill="none" />
  <path d="M 632 1051  C 630.32 1051  629 1049.68  629 1048  C 629 1046.32  630.32 1045  632 1045  C 633.68 1045  635 1046.32  635 1048  C 635 1049.68  633.68 1051  632 1051  " fill-rule="nonzero" fill="#797979" stroke="none" />
</svg>