<?xml version="1.0" encoding="utf-8"?>
<svg version="1.1" xmlns:xlink="http://www.w3.org/1999/xlink" width="12px" height="12px" viewBox="577 1079  12 12" xmlns="http://www.w3.org/2000/svg">
  <path d="M 583 1079  C 586.36 1079  589 1081.64  589 1085  C 589 1088.36  586.36 1091  583 1091  C 579.64 1091  577 1088.36  577 1085  C 577 1081.64  579.64 1079  583 1079  Z " fill-rule="nonzero" fill="#ffffff" stroke="none" />
  <path d="M 583 1079.5  C 586.08 1079.5  588.5 1081.92  588.5 1085  C 588.5 1088.08  586.08 1090.5  583 1090.5  C 579.92 1090.5  577.5 1088.08  577.5 1085  C 577.5 1081.92  579.92 1079.5  583 1079.5  Z " stroke-width="1" stroke="#797979" fill="none" />
  <path d="M 583 1088  C 581.32 1088  580 1086.68  580 1085  C 580 1083.32  581.32 1082  583 1082  C 584.68 1082  586 1083.32  586 1085  C 586 1086.68  584.68 1088  583 1088  " fill-rule="nonzero" fill="#797979" stroke="none" />
</svg>