<?xml version="1.0" encoding="utf-8"?>
<svg version="1.1" xmlns:xlink="http://www.w3.org/1999/xlink" width="12px" height="12px" viewBox="626 1079  12 12" xmlns="http://www.w3.org/2000/svg">
  <path d="M 632 1079  C 635.36 1079  638 1081.64  638 1085  C 638 1088.36  635.36 1091  632 1091  C 628.64 1091  626 1088.36  626 1085  C 626 1081.64  628.64 1079  632 1079  Z " fill-rule="nonzero" fill="#ffffff" stroke="none" />
  <path d="M 632 1079.5  C 635.08 1079.5  637.5 1081.92  637.5 1085  C 637.5 1088.08  635.08 1090.5  632 1090.5  C 628.92 1090.5  626.5 1088.08  626.5 1085  C 626.5 1081.92  628.92 1079.5  632 1079.5  Z " stroke-width="1" stroke="#797979" fill="none" />
  <path d="M 632 1088  C 630.32 1088  629 1086.68  629 1085  C 629 1083.32  630.32 1082  632 1082  C 633.68 1082  635 1083.32  635 1085  C 635 1086.68  633.68 1088  632 1088  " fill-rule="nonzero" fill="#797979" stroke="none" />
</svg>