<?xml version="1.0" encoding="utf-8"?>
<svg version="1.1" xmlns:xlink="http://www.w3.org/1999/xlink" width="12px" height="12px" viewBox="478 1208  12 12" xmlns="http://www.w3.org/2000/svg">
  <path d="M 484 1208  C 487.36 1208  490 1210.64  490 1214  C 490 1217.36  487.36 1220  484 1220  C 480.64 1220  478 1217.36  478 1214  C 478 1210.64  480.64 1208  484 1208  Z " fill-rule="nonzero" fill="#ffffff" stroke="none" />
  <path d="M 484 1208.5  C 487.08 1208.5  489.5 1210.92  489.5 1214  C 489.5 1217.08  487.08 1219.5  484 1219.5  C 480.92 1219.5  478.5 1217.08  478.5 1214  C 478.5 1210.92  480.92 1208.5  484 1208.5  Z " stroke-width="1" stroke="#797979" fill="none" />
  <path d="M 484 1217  C 482.32 1217  481 1215.68  481 1214  C 481 1212.32  482.32 1211  484 1211  C 485.68 1211  487 1212.32  487 1214  C 487 1215.68  485.68 1217  484 1217  " fill-rule="nonzero" fill="#797979" stroke="none" />
</svg>