<?xml version="1.0" encoding="utf-8"?>
<svg version="1.1" xmlns:xlink="http://www.w3.org/1999/xlink" width="12px" height="12px" viewBox="528 1208  12 12" xmlns="http://www.w3.org/2000/svg">
  <path d="M 534 1208  C 537.36 1208  540 1210.64  540 1214  C 540 1217.36  537.36 1220  534 1220  C 530.64 1220  528 1217.36  528 1214  C 528 1210.64  530.64 1208  534 1208  Z " fill-rule="nonzero" fill="#ffffff" stroke="none" />
  <path d="M 534 1208.5  C 537.08 1208.5  539.5 1210.92  539.5 1214  C 539.5 1217.08  537.08 1219.5  534 1219.5  C 530.92 1219.5  528.5 1217.08  528.5 1214  C 528.5 1210.92  530.92 1208.5  534 1208.5  Z " stroke-width="1" stroke="#797979" fill="none" />
  <path d="M 534 1217  C 532.32 1217  531 1215.68  531 1214  C 531 1212.32  532.32 1211  534 1211  C 535.68 1211  537 1212.32  537 1214  C 537 1215.68  535.68 1217  534 1217  " fill-rule="nonzero" fill="#797979" stroke="none" />
</svg>