<?xml version="1.0" encoding="utf-8"?>
<svg version="1.1" xmlns:xlink="http://www.w3.org/1999/xlink" width="12px" height="12px" viewBox="628 1208  12 12" xmlns="http://www.w3.org/2000/svg">
  <path d="M 634 1208  C 637.36 1208  640 1210.64  640 1214  C 640 1217.36  637.36 1220  634 1220  C 630.64 1220  628 1217.36  628 1214  C 628 1210.64  630.64 1208  634 1208  Z " fill-rule="nonzero" fill="#ffffff" stroke="none" />
  <path d="M 634 1208.5  C 637.08 1208.5  639.5 1210.92  639.5 1214  C 639.5 1217.08  637.08 1219.5  634 1219.5  C 630.92 1219.5  628.5 1217.08  628.5 1214  C 628.5 1210.92  630.92 1208.5  634 1208.5  Z " stroke-width="1" stroke="#797979" fill="none" />
  <path d="M 634 1217  C 632.32 1217  631 1215.68  631 1214  C 631 1212.32  632.32 1211  634 1211  C 635.68 1211  637 1212.32  637 1214  C 637 1215.68  635.68 1217  634 1217  " fill-rule="nonzero" fill="#797979" stroke="none" />
</svg>