<?xml version="1.0" encoding="utf-8"?>
<svg version="1.1" xmlns:xlink="http://www.w3.org/1999/xlink" width="12px" height="12px" viewBox="378 1245  12 12" xmlns="http://www.w3.org/2000/svg">
  <path d="M 384 1245  C 387.36 1245  390 1247.64  390 1251  C 390 1254.36  387.36 1257  384 1257  C 380.64 1257  378 1254.36  378 1251  C 378 1247.64  380.64 1245  384 1245  Z " fill-rule="nonzero" fill="#ffffff" stroke="none" />
  <path d="M 384 1245.5  C 387.08 1245.5  389.5 1247.92  389.5 1251  C 389.5 1254.08  387.08 1256.5  384 1256.5  C 380.92 1256.5  378.5 1254.08  378.5 1251  C 378.5 1247.92  380.92 1245.5  384 1245.5  Z " stroke-width="1" stroke="#797979" fill="none" />
  <path d="M 384 1254  C 382.32 1254  381 1252.68  381 1251  C 381 1249.32  382.32 1248  384 1248  C 385.68 1248  387 1249.32  387 1251  C 387 1252.68  385.68 1254  384 1254  " fill-rule="nonzero" fill="#797979" stroke="none" />
</svg>