<?xml version="1.0" encoding="utf-8"?>
<svg version="1.1" xmlns:xlink="http://www.w3.org/1999/xlink" width="12px" height="12px" viewBox="428 1282  12 12" xmlns="http://www.w3.org/2000/svg">
  <path d="M 434 1282  C 437.36 1282  440 1284.64  440 1288  C 440 1291.36  437.36 1294  434 1294  C 430.64 1294  428 1291.36  428 1288  C 428 1284.64  430.64 1282  434 1282  Z " fill-rule="nonzero" fill="#ffffff" stroke="none" />
  <path d="M 434 1282.5  C 437.08 1282.5  439.5 1284.92  439.5 1288  C 439.5 1291.08  437.08 1293.5  434 1293.5  C 430.92 1293.5  428.5 1291.08  428.5 1288  C 428.5 1284.92  430.92 1282.5  434 1282.5  Z " stroke-width="1" stroke="#797979" fill="none" />
  <path d="M 434 1291  C 432.32 1291  431 1289.68  431 1288  C 431 1286.32  432.32 1285  434 1285  C 435.68 1285  437 1286.32  437 1288  C 437 1289.68  435.68 1291  434 1291  " fill-rule="nonzero" fill="#797979" stroke="none" />
</svg>