<?xml version="1.0" encoding="utf-8"?>
<svg version="1.1" xmlns:xlink="http://www.w3.org/1999/xlink" width="12px" height="12px" viewBox="428 1245  12 12" xmlns="http://www.w3.org/2000/svg">
  <path d="M 434 1245  C 437.36 1245  440 1247.64  440 1251  C 440 1254.36  437.36 1257  434 1257  C 430.64 1257  428 1254.36  428 1251  C 428 1247.64  430.64 1245  434 1245  Z " fill-rule="nonzero" fill="#ffffff" stroke="none" />
  <path d="M 434 1245.5  C 437.08 1245.5  439.5 1247.92  439.5 1251  C 439.5 1254.08  437.08 1256.5  434 1256.5  C 430.92 1256.5  428.5 1254.08  428.5 1251  C 428.5 1247.92  430.92 1245.5  434 1245.5  Z " stroke-width="1" stroke="#797979" fill="none" />
  <path d="M 434 1254  C 432.32 1254  431 1252.68  431 1251  C 431 1249.32  432.32 1248  434 1248  C 435.68 1248  437 1249.32  437 1251  C 437 1252.68  435.68 1254  434 1254  " fill-rule="nonzero" fill="#797979" stroke="none" />
</svg>