<?xml version="1.0" encoding="utf-8"?>
<svg version="1.1" xmlns:xlink="http://www.w3.org/1999/xlink" width="12px" height="12px" viewBox="678 1319  12 12" xmlns="http://www.w3.org/2000/svg">
  <path d="M 684 1319  C 687.36 1319  690 1321.64  690 1325  C 690 1328.36  687.36 1331  684 1331  C 680.64 1331  678 1328.36  678 1325  C 678 1321.64  680.64 1319  684 1319  Z " fill-rule="nonzero" fill="#ffffff" stroke="none" />
  <path d="M 684 1319.5  C 687.08 1319.5  689.5 1321.92  689.5 1325  C 689.5 1328.08  687.08 1330.5  684 1330.5  C 680.92 1330.5  678.5 1328.08  678.5 1325  C 678.5 1321.92  680.92 1319.5  684 1319.5  Z " stroke-width="1" stroke="#797979" fill="none" />
  <path d="M 684 1328  C 682.32 1328  681 1326.68  681 1325  C 681 1323.32  682.32 1322  684 1322  C 685.68 1322  687 1323.32  687 1325  C 687 1326.68  685.68 1328  684 1328  " fill-rule="nonzero" fill="#797979" stroke="none" />
</svg>