<?xml version="1.0" encoding="utf-8"?>
<svg version="1.1" xmlns:xlink="http://www.w3.org/1999/xlink" width="12px" height="12px" viewBox="378 1282  12 12" xmlns="http://www.w3.org/2000/svg">
  <path d="M 384 1282  C 387.36 1282  390 1284.64  390 1288  C 390 1291.36  387.36 1294  384 1294  C 380.64 1294  378 1291.36  378 1288  C 378 1284.64  380.64 1282  384 1282  Z " fill-rule="nonzero" fill="#ffffff" stroke="none" />
  <path d="M 384 1282.5  C 387.08 1282.5  389.5 1284.92  389.5 1288  C 389.5 1291.08  387.08 1293.5  384 1293.5  C 380.92 1293.5  378.5 1291.08  378.5 1288  C 378.5 1284.92  380.92 1282.5  384 1282.5  Z " stroke-width="1" stroke="#797979" fill="none" />
  <path d="M 384 1291  C 382.32 1291  381 1289.68  381 1288  C 381 1286.32  382.32 1285  384 1285  C 385.68 1285  387 1286.32  387 1288  C 387 1289.68  385.68 1291  384 1291  " fill-rule="nonzero" fill="#797979" stroke="none" />
</svg>