<?xml version="1.0" encoding="utf-8"?>
<svg version="1.1" xmlns:xlink="http://www.w3.org/1999/xlink" width="12px" height="12px" viewBox="528 1245  12 12" xmlns="http://www.w3.org/2000/svg">
  <path d="M 534 1245  C 537.36 1245  540 1247.64  540 1251  C 540 1254.36  537.36 1257  534 1257  C 530.64 1257  528 1254.36  528 1251  C 528 1247.64  530.64 1245  534 1245  Z " fill-rule="nonzero" fill="#ffffff" stroke="none" />
  <path d="M 534 1245.5  C 537.08 1245.5  539.5 1247.92  539.5 1251  C 539.5 1254.08  537.08 1256.5  534 1256.5  C 530.92 1256.5  528.5 1254.08  528.5 1251  C 528.5 1247.92  530.92 1245.5  534 1245.5  Z " stroke-width="1" stroke="#797979" fill="none" />
  <path d="M 534 1254  C 532.32 1254  531 1252.68  531 1251  C 531 1249.32  532.32 1248  534 1248  C 535.68 1248  537 1249.32  537 1251  C 537 1252.68  535.68 1254  534 1254  " fill-rule="nonzero" fill="#797979" stroke="none" />
</svg>