<?xml version="1.0" encoding="utf-8"?>
<svg version="1.1" xmlns:xlink="http://www.w3.org/1999/xlink" width="12px" height="12px" viewBox="678 1282  12 12" xmlns="http://www.w3.org/2000/svg">
  <path d="M 684 1282  C 687.36 1282  690 1284.64  690 1288  C 690 1291.36  687.36 1294  684 1294  C 680.64 1294  678 1291.36  678 1288  C 678 1284.64  680.64 1282  684 1282  Z " fill-rule="nonzero" fill="#ffffff" stroke="none" />
  <path d="M 684 1282.5  C 687.08 1282.5  689.5 1284.92  689.5 1288  C 689.5 1291.08  687.08 1293.5  684 1293.5  C 680.92 1293.5  678.5 1291.08  678.5 1288  C 678.5 1284.92  680.92 1282.5  684 1282.5  Z " stroke-width="1" stroke="#797979" fill="none" />
  <path d="M 684 1291  C 682.32 1291  681 1289.68  681 1288  C 681 1286.32  682.32 1285  684 1285  C 685.68 1285  687 1286.32  687 1288  C 687 1289.68  685.68 1291  684 1291  " fill-rule="nonzero" fill="#797979" stroke="none" />
</svg>