<?xml version="1.0" encoding="utf-8"?>
<svg version="1.1" xmlns:xlink="http://www.w3.org/1999/xlink" width="12px" height="12px" viewBox="678 1245  12 12" xmlns="http://www.w3.org/2000/svg">
  <path d="M 684 1245  C 687.36 1245  690 1247.64  690 1251  C 690 1254.36  687.36 1257  684 1257  C 680.64 1257  678 1254.36  678 1251  C 678 1247.64  680.64 1245  684 1245  Z " fill-rule="nonzero" fill="#ffffff" stroke="none" />
  <path d="M 684 1245.5  C 687.08 1245.5  689.5 1247.92  689.5 1251  C 689.5 1254.08  687.08 1256.5  684 1256.5  C 680.92 1256.5  678.5 1254.08  678.5 1251  C 678.5 1247.92  680.92 1245.5  684 1245.5  Z " stroke-width="1" stroke="#797979" fill="none" />
  <path d="M 684 1254  C 682.32 1254  681 1252.68  681 1251  C 681 1249.32  682.32 1248  684 1248  C 685.68 1248  687 1249.32  687 1251  C 687 1252.68  685.68 1254  684 1254  " fill-rule="nonzero" fill="#797979" stroke="none" />
</svg>