<?xml version="1.0" encoding="utf-8"?>
<svg version="1.1" xmlns:xlink="http://www.w3.org/1999/xlink" width="12px" height="12px" viewBox="628 1245  12 12" xmlns="http://www.w3.org/2000/svg">
  <path d="M 634 1245  C 637.36 1245  640 1247.64  640 1251  C 640 1254.36  637.36 1257  634 1257  C 630.64 1257  628 1254.36  628 1251  C 628 1247.64  630.64 1245  634 1245  Z " fill-rule="nonzero" fill="#ffffff" stroke="none" />
  <path d="M 634 1245.5  C 637.08 1245.5  639.5 1247.92  639.5 1251  C 639.5 1254.08  637.08 1256.5  634 1256.5  C 630.92 1256.5  628.5 1254.08  628.5 1251  C 628.5 1247.92  630.92 1245.5  634 1245.5  Z " stroke-width="1" stroke="#797979" fill="none" />
  <path d="M 634 1254  C 632.32 1254  631 1252.68  631 1251  C 631 1249.32  632.32 1248  634 1248  C 635.68 1248  637 1249.32  637 1251  C 637 1252.68  635.68 1254  634 1254  " fill-rule="nonzero" fill="#797979" stroke="none" />
</svg>