<?xml version="1.0" encoding="utf-8"?>
<svg version="1.1" xmlns:xlink="http://www.w3.org/1999/xlink" width="12px" height="12px" viewBox="378 1319  12 12" xmlns="http://www.w3.org/2000/svg">
  <path d="M 384 1319  C 387.36 1319  390 1321.64  390 1325  C 390 1328.36  387.36 1331  384 1331  C 380.64 1331  378 1328.36  378 1325  C 378 1321.64  380.64 1319  384 1319  Z " fill-rule="nonzero" fill="#ffffff" stroke="none" />
  <path d="M 384 1319.5  C 387.08 1319.5  389.5 1321.92  389.5 1325  C 389.5 1328.08  387.08 1330.5  384 1330.5  C 380.92 1330.5  378.5 1328.08  378.5 1325  C 378.5 1321.92  380.92 1319.5  384 1319.5  Z " stroke-width="1" stroke="#797979" fill="none" />
  <path d="M 384 1328  C 382.32 1328  381 1326.68  381 1325  C 381 1323.32  382.32 1322  384 1322  C 385.68 1322  387 1323.32  387 1325  C 387 1326.68  385.68 1328  384 1328  " fill-rule="nonzero" fill="#797979" stroke="none" />
</svg>