<?xml version="1.0" encoding="utf-8"?>
<svg version="1.1" xmlns:xlink="http://www.w3.org/1999/xlink" width="12px" height="12px" viewBox="478 1319  12 12" xmlns="http://www.w3.org/2000/svg">
  <path d="M 484 1319  C 487.36 1319  490 1321.64  490 1325  C 490 1328.36  487.36 1331  484 1331  C 480.64 1331  478 1328.36  478 1325  C 478 1321.64  480.64 1319  484 1319  Z " fill-rule="nonzero" fill="#ffffff" stroke="none" />
  <path d="M 484 1319.5  C 487.08 1319.5  489.5 1321.92  489.5 1325  C 489.5 1328.08  487.08 1330.5  484 1330.5  C 480.92 1330.5  478.5 1328.08  478.5 1325  C 478.5 1321.92  480.92 1319.5  484 1319.5  Z " stroke-width="1" stroke="#797979" fill="none" />
  <path d="M 484 1328  C 482.32 1328  481 1326.68  481 1325  C 481 1323.32  482.32 1322  484 1322  C 485.68 1322  487 1323.32  487 1325  C 487 1326.68  485.68 1328  484 1328  " fill-rule="nonzero" fill="#797979" stroke="none" />
</svg>