<?xml version="1.0" encoding="utf-8"?>
<svg version="1.1" xmlns:xlink="http://www.w3.org/1999/xlink" width="12px" height="12px" viewBox="628 1282  12 12" xmlns="http://www.w3.org/2000/svg">
  <path d="M 634 1282  C 637.36 1282  640 1284.64  640 1288  C 640 1291.36  637.36 1294  634 1294  C 630.64 1294  628 1291.36  628 1288  C 628 1284.64  630.64 1282  634 1282  Z " fill-rule="nonzero" fill="#ffffff" stroke="none" />
  <path d="M 634 1282.5  C 637.08 1282.5  639.5 1284.92  639.5 1288  C 639.5 1291.08  637.08 1293.5  634 1293.5  C 630.92 1293.5  628.5 1291.08  628.5 1288  C 628.5 1284.92  630.92 1282.5  634 1282.5  Z " stroke-width="1" stroke="#797979" fill="none" />
  <path d="M 634 1291  C 632.32 1291  631 1289.68  631 1288  C 631 1286.32  632.32 1285  634 1285  C 635.68 1285  637 1286.32  637 1288  C 637 1289.68  635.68 1291  634 1291  " fill-rule="nonzero" fill="#797979" stroke="none" />
</svg>