<?xml version="1.0" encoding="utf-8"?>
<svg version="1.1" xmlns:xlink="http://www.w3.org/1999/xlink" width="12px" height="12px" viewBox="628 1319  12 12" xmlns="http://www.w3.org/2000/svg">
  <path d="M 634 1319  C 637.36 1319  640 1321.64  640 1325  C 640 1328.36  637.36 1331  634 1331  C 630.64 1331  628 1328.36  628 1325  C 628 1321.64  630.64 1319  634 1319  Z " fill-rule="nonzero" fill="#ffffff" stroke="none" />
  <path d="M 634 1319.5  C 637.08 1319.5  639.5 1321.92  639.5 1325  C 639.5 1328.08  637.08 1330.5  634 1330.5  C 630.92 1330.5  628.5 1328.08  628.5 1325  C 628.5 1321.92  630.92 1319.5  634 1319.5  Z " stroke-width="1" stroke="#797979" fill="none" />
  <path d="M 634 1328  C 632.32 1328  631 1326.68  631 1325  C 631 1323.32  632.32 1322  634 1322  C 635.68 1322  637 1323.32  637 1325  C 637 1326.68  635.68 1328  634 1328  " fill-rule="nonzero" fill="#797979" stroke="none" />
</svg>