<?xml version="1.0" encoding="utf-8"?>
<svg version="1.1" xmlns:xlink="http://www.w3.org/1999/xlink" width="1357px" height="61px" xmlns="http://www.w3.org/2000/svg">
  <defs>
    <mask fill="white" id="clip85">
      <path d="M 1356.00000114211 0  L 0 0.00125084779749561  L 0 58.1627906976744  C 0 59.7516279069768  2.63999999999999 61  6 61  L 1350 61  C 1353.36 61  1356 59.7516279069768  1356 58.1627906976744  L 1356.00000114211 0  Z " fill-rule="evenodd" />
    </mask>
  </defs>
  <g transform="matrix(1 0 0 1 0 -47 )">
    <path d="M 1356.00000114211 0  L 0 0.00125084779749561  L 0 58.1627906976744  C 0 59.7516279069768  2.63999999999999 61  6 61  L 1350 61  C 1353.36 61  1356 59.7516279069768  1356 58.1627906976744  L 1356.00000114211 0  Z " fill-rule="nonzero" fill="#f9f9f9" stroke="none" transform="matrix(1 0 0 1 0 47 )" />
    <path d="M 1356.00000114211 0  L 0 0.00125084779749561  L 0 58.1627906976744  C 0 59.7516279069768  2.63999999999999 61  6 61  L 1350 61  C 1353.36 61  1356 59.7516279069768  1356 58.1627906976744  L 1356.00000114211 0  Z " stroke-width="2" stroke="#797979" fill="none" transform="matrix(1 0 0 1 0 47 )" mask="url(#clip85)" />
  </g>
</svg>