<?xml version="1.0" encoding="utf-8"?>
<svg version="1.1" xmlns:xlink="http://www.w3.org/1999/xlink" width="1357px" height="129px" xmlns="http://www.w3.org/2000/svg">
  <defs>
    <mask fill="white" id="clip84">
      <path d="M 1356.00000114211 0  L 0 0.00264523550617923  L 0 123  C 0 126.36  2.63999999999999 129  6 129  L 1350 129  C 1353.36 129  1356 126.36  1356 123  L 1356.00000114211 0  Z " fill-rule="evenodd" />
    </mask>
  </defs>
  <g transform="matrix(1 0 0 1 0 -47 )">
    <path d="M 1356.00000114211 0  L 0 0.00264523550617923  L 0 123  C 0 126.36  2.63999999999999 129  6 129  L 1350 129  C 1353.36 129  1356 126.36  1356 123  L 1356.00000114211 0  Z " fill-rule="nonzero" fill="#f9f9f9" stroke="none" transform="matrix(1 0 0 1 0 47 )" />
    <path d="M 1356.00000114211 0  L 0 0.00264523550617923  L 0 123  C 0 126.36  2.63999999999999 129  6 129  L 1350 129  C 1353.36 129  1356 126.36  1356 123  L 1356.00000114211 0  Z " stroke-width="2" stroke="#797979" fill="none" transform="matrix(1 0 0 1 0 47 )" mask="url(#clip84)" />
  </g>
</svg>