<?xml version="1.0" encoding="utf-8"?>
<svg version="1.1" xmlns:xlink="http://www.w3.org/1999/xlink" width="1357px" height="91px" xmlns="http://www.w3.org/2000/svg">
  <defs>
    <mask fill="white" id="clip87">
      <path d="M 1356.00000114211 0  L 0 0.00186601884544427  L 0 86.7674418604651  C 0 89.1376744186047  2.63999999999999 91  6 91  L 1350 91  C 1353.36 91  1356 89.1376744186047  1356 86.7674418604651  L 1356.00000114211 0  Z " fill-rule="evenodd" />
    </mask>
  </defs>
  <g transform="matrix(1 0 0 1 0 -47 )">
    <path d="M 1356.00000114211 0  L 0 0.00186601884544427  L 0 86.7674418604651  C 0 89.1376744186047  2.63999999999999 91  6 91  L 1350 91  C 1353.36 91  1356 89.1376744186047  1356 86.7674418604651  L 1356.00000114211 0  Z " fill-rule="nonzero" fill="#f9f9f9" stroke="none" transform="matrix(1 0 0 1 0 47 )" />
    <path d="M 1356.00000114211 0  L 0 0.00186601884544427  L 0 86.7674418604651  C 0 89.1376744186047  2.63999999999999 91  6 91  L 1350 91  C 1353.36 91  1356 89.1376744186047  1356 86.7674418604651  L 1356.00000114211 0  Z " stroke-width="2" stroke="#797979" fill="none" transform="matrix(1 0 0 1 0 47 )" mask="url(#clip87)" />
  </g>
</svg>