<?xml version="1.0" encoding="utf-8"?>
<svg version="1.1" xmlns:xlink="http://www.w3.org/1999/xlink" width="1357px" height="58px" xmlns="http://www.w3.org/2000/svg">
  <defs>
    <mask fill="white" id="clip86">
      <path d="M 1356.00000114211 0  L 0 0.00118933069270074  L 0 55.3023255813954  C 0 56.813023255814  2.63999999999999 58  6 58  L 1350 58  C 1353.36 58  1356 56.813023255814  1356 55.3023255813954  L 1356.00000114211 0  Z " fill-rule="evenodd" />
    </mask>
  </defs>
  <g transform="matrix(1 0 0 1 0 -47 )">
    <path d="M 1356.00000114211 0  L 0 0.00118933069270074  L 0 55.3023255813954  C 0 56.813023255814  2.63999999999999 58  6 58  L 1350 58  C 1353.36 58  1356 56.813023255814  1356 55.3023255813954  L 1356.00000114211 0  Z " fill-rule="nonzero" fill="#f9f9f9" stroke="none" transform="matrix(1 0 0 1 0 47 )" />
    <path d="M 1356.00000114211 0  L 0 0.00118933069270074  L 0 55.3023255813954  C 0 56.813023255814  2.63999999999999 58  6 58  L 1350 58  C 1353.36 58  1356 56.813023255814  1356 55.3023255813954  L 1356.00000114211 0  Z " stroke-width="2" stroke="#797979" fill="none" transform="matrix(1 0 0 1 0 47 )" mask="url(#clip86)" />
  </g>
</svg>