<?xml version="1.0" encoding="utf-8"?>
<svg version="1.1" xmlns:xlink="http://www.w3.org/1999/xlink" width="1357px" height="57px" xmlns="http://www.w3.org/2000/svg">
  <defs>
    <mask fill="white" id="clip88">
      <path d="M 1356.00000114211 0  L 0 0.00116882499110245  L 0 54.3488372093023  C 0 55.833488372093  2.63999999999999 57  6 57  L 1350 57  C 1353.36 57  1356 55.833488372093  1356 54.3488372093023  L 1356.00000114211 0  Z " fill-rule="evenodd" />
    </mask>
  </defs>
  <g transform="matrix(1 0 0 1 0 -47 )">
    <path d="M 1356.00000114211 0  L 0 0.00116882499110245  L 0 54.3488372093023  C 0 55.833488372093  2.63999999999999 57  6 57  L 1350 57  C 1353.36 57  1356 55.833488372093  1356 54.3488372093023  L 1356.00000114211 0  Z " fill-rule="nonzero" fill="#f9f9f9" stroke="none" transform="matrix(1 0 0 1 0 47 )" />
    <path d="M 1356.00000114211 0  L 0 0.00116882499110245  L 0 54.3488372093023  C 0 55.833488372093  2.63999999999999 57  6 57  L 1350 57  C 1353.36 57  1356 55.833488372093  1356 54.3488372093023  L 1356.00000114211 0  Z " stroke-width="2" stroke="#797979" fill="none" transform="matrix(1 0 0 1 0 47 )" mask="url(#clip88)" />
  </g>
</svg>