<svg t="1577711178134" class="icon" viewBox="0 0 1024 1024" version="1.1" xmlns="http://www.w3.org/2000/svg" p-id="7276" width="200" height="200"><path d="M897.3 288.1C863 228.4 769.7 224 661.1 252.6 630.5 143.7 581.1 64 511.9 64c-62.8 0-116.2 68.3-149 188.5-106.8-28-201.3-24.9-236.4 35.6-26.7 46.5-7.4 113.3 54.5 187.8 9.9 12 21.2 24.2 33.1 36.2-11.9 12-23.1 24.2-33.1 36.2-61.7 74.5-80.9 141.3-54.5 187.8 19.8 35.1 62.3 52.8 121.6 52.8 38.8-0.8 77.4-6.5 114.8-17 29.7 107.2 79.9 188.3 149 188.3s118.6-79.7 148.3-188.6c38 10.6 77.2 16.4 116.6 17.2 55.6 0 98.8-15.8 120.2-52.7 31.3-54.8 0.4-135.5-87.6-224.1 78-79.5 122.2-163.6 87.9-223.9zM848.9 316c21 36.7-33.6 129.7-156.4 225.9V512c0-69-6.6-137.8-19.8-205.4 95.2-24.8 160.5-17.8 176.2 9.4zM295.3 512.1c47.8-41.3 99.3-78 154-109.5 54.5-31.9 111.8-58.6 171.3-79.7 11.4 62.4 17 125.7 16.6 189.2 0.4 63.5-5.2 126.8-16.6 189.2-59.4-21.1-116.6-47.7-171-79.7-54.7-31.5-106.4-68.1-154.3-109.5zM511.9 120c31.2 0 69.2 53.6 95.9 148.7-32.6 11.1-64.6 24-95.9 38.6-31.3-14.7-63.3-27.6-96-38.6 27.9-102.4 67.3-148.7 96-148.7zM174.8 316c21.1-36.9 128.5-35.5 272.5 24-8.6 4.8-17.2 10-25.8 13.9-59.2 34.3-115 74.2-166.6 119.2-10.7-10.8-20.9-22-30.7-33.6-44.1-52.3-62.9-99.8-49.4-123.5z m0 392.2c-13.9-23.7 5.2-71.2 49.4-124 9.3-11.2 19.8-22.4 30.6-33.6 26 22.6 53.1 43.9 81.2 63.7 3 34.6 7.9 69 14.5 103.1-101.9 27-161.4 15.7-175.7-9.2z m337.1 196.1c-42.4 0-94.8-94.2-115.8-249.8 8.4 5.2 16.8 10 25.5 15.3 59.2 34.6 121.5 63.4 186.2 85.8-26.7 95.1-64.7 148.7-95.9 148.7z m337-196.1c-15.7 27.3-81 34.3-175.7 9.4 6.7-34 11.6-68.3 14.7-102.8 28.1-20 55.1-41.5 80.9-64.4 74.4 75.2 94.4 132.8 80.1 157.8z" fill="#ffffff" p-id="7277"></path></svg>