<svg t="1577711461088" class="icon" viewBox="0 0 1024 1024" version="1.1" xmlns="http://www.w3.org/2000/svg" p-id="8133" width="200" height="200"><path d="M518.741 732.57l331.572 134.826V153.771a17.067 17.067 0 0 0-17.033-17.238H204.749a17.067 17.067 0 0 0-17.016 17.22v713.61L518.741 732.57z m-382.208-578.8a68.267 68.267 0 0 1 68.216-68.437H833.28a68.267 68.267 0 0 1 68.233 68.42v721.323c0 37.786-28.45 56.832-63.198 42.718L518.758 787.85 199.646 917.794c-34.85 14.183-63.113-4.847-63.113-42.718V153.754z" fill="#ffffff" p-id="8134"></path><path d="M458.12 480.87l-61.78-60.21 85.367-12.408 38.178-77.346 38.16 77.346 85.368 12.407-61.781 60.211 14.592 85.01-76.34-40.141-76.355 40.14 14.592-85.009z m120.61-121.344l19.286 13.995-5.973-12.066-13.312-1.929z m-136.976 13.995l19.285-13.995-13.33 1.929-5.972 12.083zM588.15 619.486c35.414 18.603 68.318-5.257 61.543-44.715l-13.04-76.032 55.246-53.845c28.638-27.921 16.11-66.577-23.501-72.346l-76.34-11.093-34.133-69.171c-17.715-35.874-58.368-35.891-76.083 0l-34.133 69.17-76.34 11.094c-39.594 5.752-52.172 44.408-23.517 72.363l55.245 53.828-13.04 76.032c-6.758 39.424 26.113 63.352 61.543 44.715l68.267-35.891 68.283 35.89z" fill="#ffffff" p-id="8135"></path></svg>